<svg width="60" height="71" viewBox="0 0 60 71" fill="none" xmlns="http://www.w3.org/2000/svg">
<path d="M8.34028 0L18.5638 11.6527L18.8945 22.4783C19.3904 38.7117 18.379 54.9562 15.8734 71L0 55.8244L6.13959 42.4255C9.53917 35.0063 11.2997 26.9324 11.2997 18.7612C11.2997 14.0408 10.7121 9.33905 9.5507 4.76595L8.34028 0Z" fill="white"/>
<path d="M20.4468 15.7175L20.7159 30.1531L38.7416 49.0496L20.4468 15.7175Z" fill="white"/>
<path d="M29.0561 40.6489L25.8276 37.397L20.4468 44.4428L47.62 67.7481L59.1888 52.5725L48.1221 60.6087C47.8256 60.824 47.4228 60.8129 47.1385 60.5816L27.2433 44.3958C26.9037 44.1196 26.8422 43.6222 27.1041 43.2705L29.0561 40.6489Z" fill="white"/>
<path d="M29.9999 31.0342L47.0822 11.6527L60 29.4008L48.2863 19.5306C47.9261 19.2271 47.386 19.2944 47.11 19.6771L34.0355 37.809L29.9999 31.0342Z" fill="white"/>
</svg>
