<svg width="45" height="45" viewBox="0 0 45 45" fill="none" xmlns="http://www.w3.org/2000/svg">
<rect width="45" height="45" rx="22.5" fill="white"/>
<g clip-path="url(#clip0_233_6)">
<path d="M24.5696 25.3455C25.4633 27.9942 26.0642 30.7327 26.3616 33.5122C25.1205 33.9467 23.8149 34.168 22.4999 34.1667C20.1867 34.1703 17.9251 33.4829 16.0051 32.1927C16.8998 30.5349 18.119 29.0742 19.5902 27.8976C21.0615 26.721 22.7545 25.8527 24.5684 25.3444L24.5696 25.3455ZM33.6684 25.8857C32.8354 28.623 31.0277 30.9599 28.5876 32.454C28.2614 29.8902 27.691 27.3634 26.8843 24.908C29.1917 24.6696 31.5222 25.0055 33.6684 25.8857ZM22.6691 20.7325C23.0564 21.5235 23.4193 22.3309 23.7541 23.151C19.7135 24.3353 16.2844 27.0307 14.1793 30.6772C12.9963 29.4651 12.0892 28.0117 11.52 26.4165C10.9507 24.8214 10.7328 23.1221 10.8811 21.4349C14.7813 22.2609 18.8961 22.0205 22.6691 20.7325ZM31.5066 15.0847C33.4503 17.4585 34.3883 20.4984 34.1199 23.5547C31.5535 22.5887 28.7862 22.2799 26.0699 22.6564C25.6949 21.7087 25.2844 20.7755 24.8391 19.8587C27.3385 18.6947 29.5995 17.0758 31.5066 15.0847ZM16.9769 12.2217C18.7204 14.1992 20.2567 16.3501 21.5619 18.6407C18.2507 19.6953 14.7217 19.8682 11.3233 19.1424C12.2177 16.1782 14.2508 13.6895 16.9769 12.2217ZM22.4999 10.8334C25.2859 10.8334 27.8444 11.8099 29.8499 13.4397C28.1133 15.261 26.0467 16.7362 23.7599 17.7867C22.4719 15.4811 20.9638 13.3057 19.2566 11.2907C20.3108 10.9866 21.4027 10.8326 22.4999 10.8334Z" fill="#131418"/>
</g>
<defs>
<clipPath id="clip0_233_6">
<rect width="28" height="28" fill="white" transform="translate(8.5 8.5)"/>
</clipPath>
</defs>
</svg>
