<svg width="18" height="15" viewBox="0 0 18 15" fill="none" xmlns="http://www.w3.org/2000/svg">
<path d="M0.749928 7.50001C0.749928 9.01618 1.98376 10.25 3.49993 10.25L7.86693 10.25C6.92826 11.2978 6.96951 13.0229 7.97235 14.0276C8.48828 14.5427 9.18754 14.832 9.9166 14.832C10.6456 14.832 11.3449 14.5427 11.8608 14.0276L16.9742 8.91423C17.7553 8.13318 17.7553 6.86685 16.9742 6.0858L11.8608 0.972428C11.3449 0.457331 10.6456 0.168023 9.9166 0.168023C9.18754 0.168023 8.48828 0.457331 7.97235 0.972428C6.96859 1.97526 6.92735 3.70318 7.86693 4.75001L3.49993 4.75001C1.98376 4.75001 0.749928 5.98385 0.749928 7.50001ZM12.2871 8.41668L3.49993 8.41668C3.2639 8.40612 3.04105 8.30493 2.87776 8.13418C2.71448 7.96343 2.62335 7.73627 2.62335 7.50001C2.62335 7.26375 2.71448 7.0366 2.87776 6.86585C3.04105 6.69509 3.2639 6.5939 3.49993 6.58335L12.2871 6.58335L9.26851 3.56476C9.10165 3.39026 9.00853 3.15812 9.00853 2.91668C9.00853 2.67524 9.10165 2.4431 9.26851 2.26859C9.35357 2.18339 9.45459 2.1158 9.56579 2.06968C9.677 2.02357 9.79621 1.99983 9.9166 1.99983C10.037 1.99983 10.1562 2.02357 10.2674 2.06968C10.3786 2.1158 10.4796 2.18339 10.5647 2.26859L15.7961 7.50001L10.5647 12.7314C10.4796 12.8166 10.3786 12.8842 10.2674 12.9303C10.1562 12.9765 10.037 13.0002 9.9166 13.0002C9.79621 13.0002 9.677 12.9765 9.56579 12.9303C9.45459 12.8842 9.35357 12.8166 9.26851 12.7314C9.10165 12.5569 9.00853 12.3248 9.00853 12.0833C9.00853 11.8419 9.10165 11.6098 9.26851 11.4353L12.2871 8.41668Z" fill="white"/>
</svg>
