<svg width="45" height="45" viewBox="0 0 45 45" fill="none" xmlns="http://www.w3.org/2000/svg">
<rect width="45" height="45" rx="22.5" fill="white"/>
<path d="M30.0713 15.3609L28.6313 16.4442L22.5001 20.8317L16.3688 16.4009L14.9288 15.3175C14.5896 15.0473 14.1755 14.8788 13.7378 14.833C13.3001 14.7872 12.858 14.866 12.4664 15.0598C12.0748 15.2535 11.7508 15.5536 11.5346 15.923C11.3184 16.2923 11.2195 16.7146 11.2501 17.1375V29.6934C11.2501 30.0841 11.4113 30.4589 11.6982 30.7352C11.9851 31.0115 12.3743 31.1667 12.7801 31.1667H16.3688V22.8034L22.5001 27.2342L28.6313 22.8034V31.1667H32.2201C32.6258 31.1667 33.015 31.0115 33.3019 30.7352C33.5889 30.4589 33.7501 30.0841 33.7501 29.6934V17.1375C33.7712 16.7182 33.6654 16.3021 33.4455 15.9396C33.2256 15.5771 32.9011 15.284 32.5114 15.0958C32.1217 14.9076 31.6837 14.8325 31.2505 14.8795C30.8173 14.9266 30.4077 15.0938 30.0713 15.3609Z" fill="#131418"/>
</svg>
