<svg width="45" height="45" viewBox="0 0 45 45" fill="none" xmlns="http://www.w3.org/2000/svg">
<rect width="45" height="45" rx="22.5" fill="white"/>
<path d="M16.117 14.3344C16.1167 14.9532 15.8732 15.5465 15.44 15.9839C15.0069 16.4212 14.4196 16.6667 13.8073 16.6664C13.1951 16.6661 12.608 16.42 12.1753 15.9822C11.7426 15.5444 11.4997 14.9508 11.5 14.332C11.5003 13.7132 11.7438 13.1199 12.177 12.6826C12.6101 12.2452 13.1974 11.9997 13.8097 12C14.4219 12.0003 15.009 12.2464 15.4417 12.6842C15.8744 13.122 16.1173 13.7156 16.117 14.3344ZM16.1863 18.3941H11.5693V33H16.1863V18.3941ZM23.4811 18.3941H18.8872V33H23.4349V25.3354C23.4349 21.0657 28.9407 20.669 28.9407 25.3354V33H33.5V23.7488C33.5 16.5509 25.351 16.8192 23.4349 20.354L23.4811 18.3941Z" fill="#131418"/>
</svg>
