<svg width="40" height="40" viewBox="0 0 40 40" fill="none" xmlns="http://www.w3.org/2000/svg">
<rect x="0.5" y="0.5" width="39" height="39" rx="19.5" stroke="white"/>
<path d="M28.0394 12.1019C28.0328 12.0699 28.0171 12.0404 27.9943 12.0169C27.9715 11.9935 27.9424 11.977 27.9105 11.9695C25.7863 11.45 20.8793 13.3012 18.218 15.9605C17.7437 16.431 17.3112 16.9417 16.9254 17.4871C16.1051 17.4129 15.2847 17.4754 14.5863 17.7801C12.614 18.6473 12.0402 20.9121 11.8801 21.8844C11.8714 21.9376 11.8751 21.9922 11.8909 22.0438C11.9067 22.0954 11.9342 22.1427 11.9712 22.182C12.0082 22.2213 12.0538 22.2515 12.1044 22.2703C12.1549 22.2892 12.2092 22.2961 12.2629 22.2906L15.4297 21.943C15.4318 22.1818 15.4462 22.4204 15.4726 22.6578C15.4892 22.8219 15.5624 22.9751 15.6797 23.091L16.9058 24.3172C17.0219 24.4346 17.1752 24.5078 17.3394 24.5242C17.5754 24.5505 17.8126 24.5649 18.05 24.5672L17.7027 27.7312C17.6973 27.7849 17.7043 27.839 17.7231 27.8895C17.742 27.94 17.7722 27.9855 17.8114 28.0225C17.8506 28.0594 17.8978 28.0869 17.9494 28.1027C18.0009 28.1185 18.0554 28.1223 18.1086 28.1137C19.0812 27.9574 21.3508 27.3836 22.2129 25.4117C22.5176 24.7125 22.5801 23.8965 22.5097 23.0801C23.0567 22.6946 23.569 22.2621 24.0406 21.7875C26.7117 19.1312 28.5512 14.332 28.0394 12.1019ZM21.6664 18.3465C21.4331 18.1132 21.2742 17.816 21.2098 17.4925C21.1454 17.1689 21.1784 16.8335 21.3046 16.5287C21.4309 16.2239 21.6447 15.9634 21.919 15.7801C22.1933 15.5968 22.5158 15.4989 22.8457 15.4989C23.1756 15.4989 23.4981 15.5968 23.7724 15.7801C24.0467 15.9634 24.2605 16.2239 24.3867 16.5287C24.513 16.8335 24.546 17.1689 24.4816 17.4925C24.4172 17.816 24.2583 18.1132 24.025 18.3465C23.8702 18.5016 23.6864 18.6246 23.4841 18.7085C23.2817 18.7925 23.0648 18.8357 22.8457 18.8357C22.6266 18.8357 22.4097 18.7925 22.2073 18.7085C22.005 18.6246 21.8211 18.5016 21.6664 18.3465Z" stroke="white" stroke-linecap="round" stroke-linejoin="round"/>
<path d="M14.2828 23.75C13.8934 23.7978 13.5311 23.9743 13.2535 24.2516C12.5652 24.9422 12.5 27.5 12.5 27.5C12.5 27.5 15.0594 27.4348 15.748 26.7457C16.0264 26.4685 16.2032 26.1056 16.25 25.7156" stroke="white" stroke-linecap="round" stroke-linejoin="round"/>
</svg>
